<svg xmlns="http://www.w3.org/2000/svg" xmlns:xlink="http://www.w3.org/1999/xlink" preserveAspectRatio="xMidYMid" width="33" height="17" viewBox="0 0 33 17">
  <defs>
    <style>

      .cls-2 {
        fill: #8b8b8b;
      }
    </style>
  </defs>
  <path d="M16.000,-0.000 C9.466,-0.000 3.670,3.257 0.067,8.281 C-0.024,8.409 -0.024,8.580 0.067,8.708 C3.670,13.731 9.466,17.000 16.000,17.000 C22.534,17.000 28.329,13.731 31.932,8.708 C32.023,8.580 32.023,8.409 31.932,8.281 C28.329,3.257 22.534,-0.000 16.000,-0.000 ZM16.000,0.739 C22.188,0.739 27.671,3.784 31.153,8.500 C27.670,13.212 22.185,16.261 16.000,16.261 C9.814,16.261 4.329,13.212 0.846,8.500 C4.328,3.784 9.811,0.739 16.000,0.739 ZM16.000,3.696 C13.332,3.696 11.162,5.851 11.162,8.500 C11.162,11.149 13.332,13.304 16.000,13.304 C18.667,13.304 20.837,11.149 20.837,8.500 C20.837,5.851 18.667,3.696 16.000,3.696 ZM16.000,4.435 C18.265,4.435 20.093,6.250 20.093,8.500 C20.093,10.750 18.265,12.565 16.000,12.565 C13.734,12.565 11.906,10.750 11.906,8.500 C11.906,6.250 13.734,4.435 16.000,4.435 Z" id="path-1" class="cls-2" fill-rule="evenodd"/>
</svg>
