<svg xmlns="http://www.w3.org/2000/svg" xmlns:xlink="http://www.w3.org/1999/xlink" preserveAspectRatio="xMidYMid" width="20" height="25" viewBox="0 0 20 25">
  <defs>
    <style>

      .cls-2 {
        fill: #555555;
      }
    </style>
  </defs>
  <path d="M19.911,0.464 C20.040,0.720 20.028,1.042 19.880,1.287 C19.880,1.287 13.710,11.608 13.710,11.608 C13.710,11.608 13.710,24.159 13.710,24.159 C13.708,24.444 13.551,24.722 13.309,24.874 C13.066,25.025 12.746,25.044 12.487,24.923 C12.487,24.923 7.059,22.365 7.059,22.365 C6.769,22.229 6.570,21.919 6.567,21.601 C6.567,21.601 6.567,11.608 6.567,11.608 C6.567,11.608 0.121,1.296 0.121,1.296 C-0.037,1.039 -0.043,0.697 0.105,0.434 C0.254,0.172 0.550,-0.001 0.853,-0.001 C0.853,-0.001 19.139,-0.001 19.139,-0.001 C19.470,0.004 19.783,0.224 19.911,0.464 C19.911,0.464 19.911,0.464 19.911,0.464 ZM17.630,1.705 C17.630,1.705 2.398,1.705 2.398,1.705 C2.398,1.705 8.157,10.916 8.157,10.916 C8.240,11.051 8.283,11.210 8.282,11.369 C8.282,11.369 8.282,21.059 8.282,21.059 C8.282,21.059 11.996,22.809 11.996,22.809 C11.996,22.809 11.996,11.369 11.996,11.369 C11.995,11.217 12.035,11.065 12.112,10.933 C12.112,10.933 17.630,1.705 17.630,1.705 Z" id="path-1" class="cls-2" fill-rule="evenodd"/>
</svg>
