<svg xmlns="http://www.w3.org/2000/svg" xmlns:xlink="http://www.w3.org/1999/xlink" preserveAspectRatio="xMidYMid" width="24" height="25" viewBox="0 0 24 25">
  <defs>
    <style>

      .cls-2 {
        fill: #ffffff;
      }
    </style>
  </defs>
  <path d="M1.650,24.349 C1.650,24.349 5.077,24.349 5.077,24.349 C5.458,24.349 5.809,24.192 6.102,23.970 C6.747,24.602 7.596,25.013 8.533,25.013 C8.533,25.013 11.697,25.013 11.697,25.013 C11.697,25.013 12.019,25.013 12.019,25.013 C12.019,25.013 16.998,25.013 16.998,25.013 C16.998,25.013 18.170,25.013 18.170,25.013 C18.170,25.013 18.551,25.013 18.551,25.013 C20.894,25.013 22.446,23.623 22.710,21.316 C22.710,21.316 24.028,12.122 24.028,12.122 C24.028,12.122 24.028,11.933 24.028,11.933 C24.028,9.816 22.446,8.110 20.484,8.110 C20.484,8.110 19.722,8.110 19.722,8.110 C19.722,8.110 16.998,8.110 16.998,8.110 C16.998,8.110 15.739,8.110 15.739,8.110 C15.739,8.110 15.739,4.509 15.739,4.509 C15.739,2.739 15.241,1.475 14.274,0.717 C12.751,-0.483 10.701,0.180 10.613,0.212 C10.613,0.212 9.998,0.433 9.998,0.433 C9.998,0.433 9.998,5.520 9.998,5.520 C9.998,8.710 6.542,9.848 6.307,9.911 C6.014,9.532 5.575,9.311 5.077,9.311 C5.077,9.311 1.650,9.311 1.650,9.311 C0.742,9.311 0.010,10.100 0.010,11.080 C0.010,11.080 0.010,22.612 0.010,22.612 C0.010,23.560 0.742,24.349 1.650,24.349 ZM11.726,5.520 C11.726,5.520 11.726,1.886 11.726,1.886 C12.165,1.855 12.780,1.855 13.249,2.234 C13.747,2.613 13.981,3.403 13.981,4.540 C13.981,4.540 13.981,10.037 13.981,10.037 C13.981,10.037 16.998,10.037 16.998,10.037 C16.998,10.037 19.752,10.037 19.752,10.037 C19.752,10.037 20.513,10.037 20.513,10.037 C21.509,10.037 22.329,10.922 22.329,11.996 C22.329,11.996 22.329,12.028 22.329,12.028 C22.329,12.028 20.952,21.032 20.952,21.032 C20.952,21.032 20.952,21.064 20.952,21.064 C20.894,21.569 20.718,23.117 18.521,23.117 C18.521,23.117 18.141,23.117 18.141,23.117 C18.141,23.117 16.969,23.117 16.969,23.117 C16.969,23.117 12.019,23.117 12.019,23.117 C12.019,23.117 11.697,23.117 11.697,23.117 C11.697,23.117 8.533,23.117 8.533,23.117 C7.537,23.117 6.717,22.233 6.717,21.158 C6.717,21.158 6.717,11.491 6.717,11.491 C6.717,11.491 6.776,11.744 6.776,11.744 C6.981,11.649 11.726,10.164 11.726,5.520 ZM1.738,11.175 C1.738,11.175 4.960,11.175 4.960,11.175 C4.960,11.175 4.960,22.485 4.960,22.485 C4.960,22.485 1.738,22.485 1.738,22.485 C1.738,22.485 1.738,11.175 1.738,11.175 Z" id="path-1" class="cls-2" fill-rule="evenodd"/>
</svg>
