<svg xmlns="http://www.w3.org/2000/svg" xmlns:xlink="http://www.w3.org/1999/xlink" preserveAspectRatio="xMidYMid" width="32" height="29" viewBox="0 0 32 29">
  <defs>
    <style>

      .cls-2 {
        fill: #ffffff;
      }
    </style>
  </defs>
  <path d="M6.000,26.929 C6.000,25.784 6.895,24.857 7.997,24.857 C7.997,24.857 30.003,24.857 30.003,24.857 C31.106,24.857 32.000,25.776 32.000,26.929 C32.000,28.072 31.105,29.000 30.003,29.000 C30.003,29.000 7.997,29.000 7.997,29.000 C6.894,29.000 6.000,28.080 6.000,26.929 ZM6.000,18.643 C6.000,17.499 6.895,16.571 7.997,16.571 C7.997,16.571 30.003,16.571 30.003,16.571 C31.106,16.571 32.000,17.491 32.000,18.643 C32.000,19.787 31.105,20.714 30.003,20.714 C30.003,20.714 7.997,20.714 7.997,20.714 C6.894,20.714 6.000,19.795 6.000,18.643 ZM6.000,10.357 C6.000,9.213 6.895,8.285 7.997,8.285 C7.997,8.285 30.003,8.285 30.003,8.285 C31.106,8.285 32.000,9.205 32.000,10.357 C32.000,11.501 31.105,12.428 30.003,12.428 C30.003,12.428 7.997,12.428 7.997,12.428 C6.894,12.428 6.000,11.509 6.000,10.357 ZM6.000,2.071 C6.000,0.927 6.895,-0.000 7.997,-0.000 C7.997,-0.000 30.003,-0.000 30.003,-0.000 C31.106,-0.000 32.000,0.919 32.000,2.071 C32.000,3.215 31.105,4.143 30.003,4.143 C30.003,4.143 7.997,4.143 7.997,4.143 C6.894,4.143 6.000,3.223 6.000,2.071 ZM2.000,29.000 C3.105,29.000 4.000,28.072 4.000,26.929 C4.000,25.784 3.105,24.857 2.000,24.857 C0.895,24.857 -0.000,25.784 -0.000,26.929 C-0.000,28.072 0.895,29.000 2.000,29.000 ZM2.000,20.714 C3.105,20.714 4.000,19.787 4.000,18.643 C4.000,17.499 3.105,16.571 2.000,16.571 C0.895,16.571 -0.000,17.499 -0.000,18.643 C-0.000,19.787 0.895,20.714 2.000,20.714 ZM2.000,12.428 C3.105,12.428 4.000,11.501 4.000,10.357 C4.000,9.213 3.105,8.285 2.000,8.285 C0.895,8.285 -0.000,9.213 -0.000,10.357 C-0.000,11.501 0.895,12.428 2.000,12.428 ZM2.000,4.143 C3.105,4.143 4.000,3.215 4.000,2.071 C4.000,0.927 3.105,-0.000 2.000,-0.000 C0.895,-0.000 -0.000,0.927 -0.000,2.071 C-0.000,3.215 0.895,4.143 2.000,4.143 Z" id="path-1" class="cls-2" fill-rule="evenodd"/>
</svg>
