<svg xmlns="http://www.w3.org/2000/svg" xmlns:xlink="http://www.w3.org/1999/xlink" preserveAspectRatio="xMidYMid" width="17" height="25" viewBox="0 0 17 25">
  <defs>
    <style>

      .cls-2 {
        fill: #8c8c8c;
      }
    </style>
  </defs>
  <path d="M8.500,25.000 C7.998,25.000 7.528,24.744 7.240,24.323 C7.240,24.323 7.139,24.177 7.139,24.177 C7.139,24.177 1.040,12.713 1.040,12.713 C0.359,11.456 -0.000,10.032 -0.000,8.594 C-0.000,3.855 3.813,-0.000 8.500,-0.000 C13.187,-0.000 17.000,3.855 17.000,8.594 C17.000,10.032 16.640,11.458 15.958,12.716 C15.958,12.716 9.861,24.177 9.861,24.177 C9.861,24.177 9.755,24.329 9.755,24.329 C9.467,24.747 9.000,25.000 8.500,25.000 ZM8.442,23.328 C8.442,23.328 8.506,23.426 8.506,23.426 C8.506,23.426 14.600,11.970 14.600,11.970 C15.160,10.937 15.454,9.770 15.454,8.594 C15.454,4.717 12.335,1.562 8.500,1.562 C4.666,1.562 1.545,4.717 1.545,8.594 C1.545,9.771 1.840,10.937 2.397,11.966 C2.397,11.966 2.400,11.971 2.400,11.971 C2.400,11.971 8.442,23.328 8.442,23.328 ZM8.500,11.719 C6.795,11.719 5.409,10.317 5.409,8.594 C5.409,6.870 6.795,5.469 8.500,5.469 C10.204,5.469 11.591,6.870 11.591,8.594 C11.591,10.317 10.204,11.719 8.500,11.719 ZM8.500,7.031 C7.648,7.031 6.954,7.732 6.954,8.594 C6.954,9.455 7.648,10.156 8.500,10.156 C9.352,10.156 10.045,9.455 10.045,8.594 C10.045,7.732 9.352,7.031 8.500,7.031 Z" id="path-1" class="cls-2" fill-rule="evenodd"/>
</svg>
