<svg xmlns="http://www.w3.org/2000/svg" xmlns:xlink="http://www.w3.org/1999/xlink" preserveAspectRatio="xMidYMid" width="22" height="29" viewBox="0 0 22 29">
  <defs>
    <style>

      .cls-2 {
        fill: #8d8d8d;
      }
    </style>
  </defs>
  <path d="M-0.004,28.996 C-0.004,28.996 -0.004,10.210 -0.004,10.210 C-0.004,10.210 3.647,10.210 3.647,10.210 C3.647,10.210 3.647,7.300 3.647,7.300 C3.647,5.360 4.419,3.522 5.808,2.144 C7.196,0.766 9.047,-0.000 11.002,-0.000 C15.065,-0.000 18.356,3.267 18.356,7.300 C18.356,7.300 18.356,10.210 18.356,10.210 C18.356,10.210 22.007,10.210 22.007,10.210 C22.007,10.210 22.007,28.996 22.007,28.996 C22.007,28.996 -0.004,28.996 -0.004,28.996 ZM16.299,7.300 C16.299,4.390 13.933,2.042 11.002,2.042 C9.562,2.042 8.225,2.604 7.247,3.573 C6.270,4.594 5.705,5.922 5.705,7.300 C5.705,7.300 5.705,10.210 5.705,10.210 C5.705,10.210 16.299,10.210 16.299,10.210 C16.299,10.210 16.299,7.300 16.299,7.300 ZM19.950,12.252 C19.950,12.252 2.053,12.252 2.053,12.252 C2.053,12.252 2.053,26.954 2.053,26.954 C2.053,26.954 19.950,26.954 19.950,26.954 C19.950,26.954 19.950,12.252 19.950,12.252 ZM6.219,17.919 C7.145,17.919 7.916,18.684 7.916,19.603 C7.916,20.522 7.145,21.288 6.219,21.288 C5.293,21.288 4.522,20.522 4.522,19.603 C4.522,18.684 5.293,17.919 6.219,17.919 ZM6.219,19.961 C6.425,19.961 6.579,19.807 6.579,19.603 C6.579,19.399 6.425,19.246 6.219,19.246 C6.065,19.246 5.859,19.399 5.859,19.603 C5.859,19.807 6.013,19.961 6.219,19.961 ZM11.002,17.919 C11.927,17.919 12.699,18.684 12.699,19.603 C12.699,20.522 11.927,21.288 11.002,21.288 C10.076,21.288 9.305,20.522 9.305,19.603 C9.305,18.684 10.076,17.919 11.002,17.919 ZM11.002,19.961 C11.207,19.961 11.362,19.807 11.362,19.603 C11.362,19.399 11.207,19.246 11.002,19.246 C10.796,19.246 10.642,19.399 10.642,19.603 C10.642,19.807 10.796,19.961 11.002,19.961 ZM15.785,17.919 C16.710,17.919 17.482,18.684 17.482,19.603 C17.482,20.522 16.710,21.288 15.785,21.288 C14.859,21.288 14.088,20.522 14.088,19.603 C14.088,18.684 14.859,17.919 15.785,17.919 ZM15.785,19.961 C15.990,19.961 16.145,19.807 16.145,19.603 C16.145,19.399 15.990,19.246 15.785,19.246 C15.579,19.246 15.425,19.399 15.425,19.603 C15.425,19.807 15.579,19.961 15.785,19.961 Z" id="path-1" class="cls-2" fill-rule="evenodd"/>
</svg>
