<?xml version="1.0" encoding="utf-8"?>
<!-- Generator: Adobe Illustrator 19.1.0, SVG Export Plug-In . SVG Version: 6.00 Build 0)  -->
<svg version="1.1"
	 id="Layer_1" xmlns:dc="http://purl.org/dc/elements/1.1/" xmlns:cc="http://creativecommons.org/ns#" xmlns:rdf="http://www.w3.org/1999/02/22-rdf-syntax-ns#" xmlns:svg="http://www.w3.org/2000/svg" xmlns:sodipodi="http://sodipodi.sourceforge.net/DTD/sodipodi-0.dtd" xmlns:inkscape="http://www.inkscape.org/namespaces/inkscape"
	 xmlns="http://www.w3.org/2000/svg" xmlns:xlink="http://www.w3.org/1999/xlink" x="0px" y="0px" viewBox="-429 218 100 125"
	 style="enable-background:new -429 218 100 125;" xml:space="preserve">
<g transform="translate(0,-952.36218)">
	<path d="M-366.3,1175.4c-1.7,0.1-2.9,1.5-2.8,3.2s1.5,2.9,3.2,2.8h21v78h-21c-1.7,0-3,1.3-3,3c0,1.7,1.3,3,3,3c0,0,0.1,0,0.1,0h24
		c1.7,0,3-1.3,3-3v-84c0-1.7-1.3-3-3-3h-24C-366.1,1175.4-366.2,1175.4-366.3,1175.4z M-386.2,1195.3c-1.7,0.1-2.9,1.5-2.9,3.1
		c0,0.8,0.4,1.5,1,2.1l18.3,16.8H-416c-0.1,0-0.2,0-0.3,0c-1.6,0.1-2.9,1.6-2.8,3.2c0.1,1.6,1.6,2.9,3.2,2.8h46.3l-18.3,16.8
		c-1.3,1.1-1.4,3-0.4,4.2s3,1.4,4.2,0.4c0.1-0.1,0.1-0.1,0.2-0.2l24-22c1.2-1.1,1.3-3,0.2-4.2c-0.1-0.1-0.1-0.1-0.2-0.2l-24-22
		C-384.6,1195.6-385.3,1195.3-386.2,1195.3z"/>
</g>
</svg>
