<svg xmlns:dc="http://purl.org/dc/elements/1.1/" xmlns:cc="http://creativecommons.org/ns#" xmlns:rdf="http://www.w3.org/1999/02/22-rdf-syntax-ns#" xmlns:svg="http://www.w3.org/2000/svg" xmlns="http://www.w3.org/2000/svg" xmlns:sodipodi="http://sodipodi.sourceforge.net/DTD/sodipodi-0.dtd" xmlns:inkscape="http://www.inkscape.org/namespaces/inkscape" version="1.1" x="0px" y="0px" viewBox="0 0 100 125"><g transform="translate(0,-952.36218)"><path style="font-size:medium;font-style:normal;font-variant:normal;font-weight:normal;font-stretch:normal;text-indent:0;text-align:start;text-decoration:none;line-height:normal;letter-spacing:normal;word-spacing:normal;text-transform:none;direction:ltr;block-progression:tb;writing-mode:lr-tb;text-anchor:start;baseline-shift:baseline;opacity:1;color:#000000;fill:#000000;fill-opacity:1;stroke:none;stroke-width:2;marker:none;visibility:visible;display:inline;overflow:visible;enable-background:accumulate;font-family:Sans;-inkscape-font-specification:Sans" d="M 50 27 C 32.442265 27 16.868782 35.81388 7.1875 49.40625 A 1.0001 1.0001 0 0 0 7.1875 50.5625 C 16.868781 64.1551 32.442265 73 50 73 C 67.557734 73 83.131218 64.1551 92.8125 50.5625 A 1.0001 1.0001 0 0 0 92.8125 49.40625 C 83.131217 35.81388 67.557734 27 50 27 z M 50 29 C 66.630385 29 81.361558 37.23858 90.71875 50 C 81.360807 62.7503 66.621805 71 50 71 C 33.378194 71 18.639192 62.7503 9.28125 50 C 18.638441 37.23858 33.369614 29 50 29 z M 50 37 C 42.832143 37 37 42.83212 37 50 C 37 57.1678 42.832143 63 50 63 C 57.167857 63 63 57.1678 63 50 C 63 42.83212 57.167857 37 50 37 z M 50 39 C 56.086977 39 61 43.913 61 50 C 61 56.087 56.086977 61 50 61 C 43.913023 61 39 56.087 39 50 C 39 43.913 43.913023 39 50 39 z " transform="translate(0,952.36218)"/></g><text x="0" y="115" fill="#000000" font-size="5px" font-weight="bold" font-family="'Helvetica Neue', Helvetica, Arial-Unicode, Arial, Sans-serif">Created by creative outlet</text><text x="0" y="120" fill="#000000" font-size="5px" font-weight="bold" font-family="'Helvetica Neue', Helvetica, Arial-Unicode, Arial, Sans-serif">from the Noun Project</text></svg>