<svg xmlns="http://www.w3.org/2000/svg" xmlns:xlink="http://www.w3.org/1999/xlink" preserveAspectRatio="xMidYMid" width="26" height="21" viewBox="0 0 26 21">
  <defs>
    <style>

      .cls-2 {
        fill: #8c8c8c;
      }
    </style>
  </defs>
  <path d="M22.350,8.857 C23.188,7.906 23.702,6.683 23.702,5.325 C23.702,2.391 21.323,-0.000 18.404,-0.000 C16.404,-0.000 14.647,1.114 13.755,2.771 C13.512,2.744 13.269,2.717 12.999,2.717 C12.755,2.717 12.485,2.744 12.242,2.771 C11.350,1.114 9.593,-0.000 7.593,-0.000 C4.674,-0.000 2.295,2.391 2.295,5.325 C2.295,6.683 2.809,7.906 3.647,8.857 C1.512,9.781 -0.002,11.927 -0.002,14.400 C-0.002,14.400 -0.002,17.606 -0.002,17.606 C-0.002,17.986 0.295,18.285 0.674,18.285 C0.674,18.285 5.404,18.285 5.404,18.285 C5.404,18.285 5.404,20.323 5.404,20.323 C5.404,20.703 5.701,21.002 6.079,21.002 C6.079,21.002 19.918,21.002 19.918,21.002 C20.296,21.002 20.594,20.703 20.594,20.323 C20.594,20.323 20.594,18.285 20.594,18.285 C20.594,18.285 25.323,18.285 25.323,18.285 C25.702,18.285 25.999,17.986 25.999,17.606 C25.999,17.606 25.999,14.400 25.999,14.400 C25.999,11.900 24.513,9.754 22.350,8.857 ZM24.648,16.926 C24.648,16.926 20.594,16.926 20.594,16.926 C20.512,14.535 19.053,12.471 16.945,11.574 C17.215,11.275 17.458,10.949 17.647,10.596 C17.891,10.623 18.134,10.650 18.404,10.650 C19.404,10.650 20.350,10.351 21.134,9.862 C23.161,10.379 24.648,12.199 24.648,14.372 C24.648,14.372 24.648,16.926 24.648,16.926 ZM6.755,19.643 C6.755,19.643 6.755,17.117 6.755,17.117 C6.755,14.943 8.242,13.095 10.269,12.606 C11.080,13.095 11.999,13.394 12.999,13.394 C13.999,13.394 14.945,13.095 15.728,12.606 C17.756,13.123 19.242,14.943 19.242,17.117 C19.242,17.117 19.242,19.643 19.242,19.643 C19.242,19.643 6.755,19.643 6.755,19.643 ZM1.349,14.400 C1.349,12.226 2.836,10.379 4.863,9.890 C5.674,10.379 6.593,10.677 7.593,10.677 C7.836,10.677 8.107,10.650 8.350,10.623 C8.539,10.976 8.782,11.302 9.052,11.601 C6.971,12.498 5.485,14.563 5.404,16.954 C5.404,16.954 1.349,16.954 1.349,16.954 C1.349,16.954 1.349,14.400 1.349,14.400 ZM3.647,5.325 C3.647,3.124 5.431,1.358 7.593,1.358 C8.971,1.358 10.188,2.065 10.890,3.151 C9.025,3.966 7.701,5.841 7.701,8.042 C7.701,8.477 7.755,8.884 7.863,9.292 C7.782,9.292 7.701,9.292 7.620,9.292 C5.404,9.292 3.647,7.499 3.647,5.325 ZM18.404,1.331 C20.594,1.331 22.350,3.124 22.350,5.298 C22.350,7.471 20.594,9.292 18.404,9.292 C18.323,9.292 18.242,9.292 18.161,9.292 C18.269,8.884 18.323,8.477 18.323,8.042 C18.323,5.868 16.999,3.966 15.134,3.151 C15.810,2.065 17.026,1.331 18.404,1.331 ZM16.945,8.042 C16.945,10.243 15.161,12.009 12.999,12.009 C10.809,12.009 9.052,10.215 9.052,8.042 C9.052,5.841 10.836,4.075 12.999,4.075 C15.188,4.048 16.945,5.841 16.945,8.042 Z" id="path-1" class="cls-2" fill-rule="evenodd"/>
</svg>
