<?xml version="1.0" encoding="utf-8"?>
<!-- Generator: Adobe Illustrator 19.1.0, SVG Export Plug-In . SVG Version: 6.00 Build 0)  -->
<svg version="1.1" id="Layer_1" xmlns="http://www.w3.org/2000/svg" xmlns:xlink="http://www.w3.org/1999/xlink" x="0px" y="0px"
	 viewBox="-429 218 100 125" style="enable-background:new -429 218 100 125;" xml:space="preserve">
<style type="text/css">
	.st0{font-family:'Helvetica-Bold';}
	.st1{font-size:5px;}
</style>
<g>
	<path d="M-370.6,228.7c8,0,14.6,6.5,14.6,14.6v41c0,12.7-10.3,23-23,23s-23-10.3-23-23v-41c0-8,6.5-14.6,14.6-14.6H-370.6
		 M-370.6,223h-16.8c-11.2,0-20.3,9.1-20.3,20.3v41c0,15.8,12.8,28.7,28.7,28.7l0,0c15.9,0,28.7-12.9,28.7-28.7v-41
		C-350.3,232.1-359.4,223-370.6,223L-370.6,223z"/>
</g>
<g>
	<path d="M-379,270.5c-0.3,0-0.7-0.1-1-0.3l-8.8-6.2c-0.8-0.5-1-1.6-0.4-2.4c0.5-0.8,1.6-1,2.4-0.4l7.8,5.5l7.8-5.5
		c0.8-0.5,1.8-0.4,2.4,0.4c0.5,0.8,0.4,1.8-0.4,2.4l-8.8,6.2C-378.3,270.4-378.7,270.5-379,270.5z"/>
</g>
<g>
	<path d="M-378.9,283.8c-0.3,0-0.7-0.1-1-0.3l-8.8-6.2c-0.8-0.5-1-1.6-0.4-2.4c0.5-0.8,1.6-1,2.4-0.4l7.8,5.5l7.8-5.5
		c0.8-0.5,1.8-0.4,2.4,0.4c0.5,0.8,0.4,1.8-0.4,2.4l-8.8,6.2C-378.2,283.7-378.5,283.8-378.9,283.8z"/>
</g>
<g>
	<path d="M-379,296.8c-0.3,0-0.7-0.1-1-0.3l-8.8-6.2c-0.8-0.5-1-1.6-0.4-2.4c0.6-0.8,1.6-1,2.4-0.4l7.8,5.5l7.8-5.5
		c0.8-0.5,1.8-0.4,2.4,0.4c0.5,0.8,0.4,1.8-0.4,2.4l-8.8,6.2C-378.3,296.7-378.7,296.8-379,296.8z"/>
</g>
<path d="M-379,254.3c-1.9,0-3.4-1.5-3.4-3.4v-7.5c0-1.9,1.5-3.4,3.4-3.4s3.4,1.5,3.4,3.4v7.5C-375.6,252.8-377.1,254.3-379,254.3z"
	/>
<text transform="matrix(1 0 0 1 -429 333)" class="st0 st1">Created by Greg Fiske</text>
<text transform="matrix(1 0 0 1 -429 338)" class="st0 st1">from the Noun Project</text>
</svg>
