<svg xmlns="http://www.w3.org/2000/svg" xmlns:xlink="http://www.w3.org/1999/xlink" preserveAspectRatio="xMidYMid" width="24" height="25" viewBox="0 0 24 25">
  <defs>
    <style>

      .cls-2 {
        fill: #636363;
      }
    </style>
  </defs>
  <path d="M23.701,23.227 C23.701,23.227 15.493,14.660 15.493,14.660 C16.659,13.115 17.385,11.192 17.385,9.075 C17.385,4.071 13.485,-0.000 8.689,-0.000 C3.893,-0.000 -0.007,4.071 -0.007,9.075 C-0.007,14.079 3.893,18.152 8.689,18.152 C10.739,18.152 12.601,17.377 14.089,16.133 C14.089,16.133 22.293,24.696 22.293,24.696 C22.487,24.898 22.743,25.000 22.997,25.000 C23.251,25.000 23.507,24.898 23.701,24.696 C24.091,24.289 24.091,23.633 23.701,23.227 M8.689,16.075 C4.993,16.075 1.985,12.935 1.985,9.075 C1.985,5.219 4.993,2.079 8.689,2.079 C12.385,2.079 15.393,5.219 15.393,9.075 C15.393,12.935 12.385,16.075 8.689,16.075 " id="path-1" class="cls-2" fill-rule="evenodd"/>
</svg>
