<svg xmlns="http://www.w3.org/2000/svg" xmlns:xlink="http://www.w3.org/1999/xlink" preserveAspectRatio="xMidYMid" width="24" height="27" viewBox="0 0 24 27">
  <defs>
    <style>

      .cls-2 {
        fill: #8c8c8c;
      }
    </style>
  </defs>
  <path d="M22.765,17.060 C22.765,17.060 21.543,17.500 21.543,17.500 C21.543,17.500 21.543,20.438 21.543,20.438 C21.542,22.000 20.244,23.267 18.640,23.267 C18.640,23.267 15.966,23.267 15.966,23.267 C15.966,23.267 15.966,26.452 15.966,26.452 C15.966,26.596 15.906,26.738 15.802,26.839 C15.697,26.941 15.552,27.000 15.405,27.000 C15.405,27.000 6.270,27.000 6.270,27.000 C6.121,27.000 5.977,26.941 5.872,26.839 C5.768,26.738 5.708,26.596 5.708,26.452 C5.708,26.452 5.708,20.785 5.708,20.785 C3.657,19.768 2.242,18.137 1.342,16.373 C0.393,14.514 -0.003,12.504 -0.005,10.808 C-0.005,4.836 4.964,-0.004 11.092,-0.005 C17.000,-0.004 21.829,4.494 22.169,10.169 C22.169,10.169 23.884,14.692 23.884,14.692 C23.963,14.901 24.001,15.118 24.001,15.331 C24.001,16.081 23.528,16.784 22.765,17.060 ZM22.830,15.071 C22.830,15.071 21.086,10.472 21.086,10.472 C21.086,10.472 21.051,10.309 21.051,10.309 C20.786,5.176 16.428,1.089 11.092,1.090 C8.336,1.091 5.847,2.177 4.040,3.936 C2.234,5.697 1.119,8.123 1.119,10.808 C1.118,12.338 1.486,14.204 2.347,15.885 C3.210,17.570 4.549,19.064 6.505,19.945 C6.703,20.034 6.832,20.229 6.832,20.442 C6.832,20.442 6.832,25.905 6.832,25.905 C6.832,25.905 14.843,25.905 14.843,25.905 C14.843,25.905 14.843,22.720 14.843,22.720 C14.843,22.575 14.903,22.435 15.008,22.332 C15.112,22.230 15.256,22.173 15.405,22.173 C15.405,22.173 18.640,22.173 18.640,22.173 C19.623,22.170 20.418,21.395 20.420,20.438 C20.420,20.438 20.420,17.118 20.420,17.118 C20.420,16.889 20.566,16.684 20.787,16.605 C20.787,16.605 22.375,16.033 22.375,16.033 C22.685,15.922 22.877,15.635 22.878,15.330 C22.877,15.244 22.862,15.158 22.830,15.071 ZM17.639,8.930 C17.055,9.368 16.312,9.372 15.821,9.375 C15.712,9.376 15.579,9.372 15.426,9.367 C13.966,9.319 11.248,9.228 10.072,12.788 C9.673,13.992 8.410,14.729 6.921,14.729 C6.552,14.729 6.169,14.684 5.781,14.589 C5.641,14.555 5.502,14.512 5.365,14.465 C5.364,14.465 5.362,14.464 5.360,14.464 C4.605,14.204 3.906,13.750 3.379,13.116 C3.377,13.114 3.374,13.114 3.372,13.112 C3.361,13.101 3.358,13.087 3.348,13.077 C2.613,12.170 2.226,10.905 2.526,9.304 C3.335,4.983 7.116,2.496 10.725,2.253 C10.801,2.236 10.875,2.231 10.952,2.241 C11.296,2.226 11.639,2.225 11.975,2.253 C14.579,2.467 18.390,4.461 18.437,7.099 C18.451,7.871 18.160,8.538 17.639,8.930 ZM8.824,12.396 C8.986,11.905 9.180,11.477 9.391,11.090 C9.391,11.090 6.972,13.448 6.972,13.448 C7.801,13.436 8.586,13.117 8.824,12.396 ZM4.065,8.592 C4.065,8.592 8.886,3.894 8.886,3.894 C6.764,4.590 4.851,6.201 4.065,8.592 ZM11.865,3.526 C11.675,3.510 11.484,3.502 11.291,3.502 C11.239,3.502 11.187,3.507 11.135,3.508 C11.135,3.508 3.764,10.691 3.764,10.691 C3.794,11.033 3.858,11.350 3.972,11.624 C3.972,11.624 12.236,3.571 12.236,3.571 C12.109,3.551 11.985,3.535 11.865,3.526 ZM13.686,3.965 C13.686,3.965 4.750,12.671 4.750,12.671 C4.967,12.853 5.206,13.001 5.458,13.117 C5.458,13.117 14.494,4.312 14.494,4.312 C14.229,4.182 13.958,4.067 13.686,3.965 ZM15.647,4.995 C15.647,4.995 11.850,8.694 11.850,8.694 C12.426,8.420 13.007,8.261 13.548,8.176 C13.548,8.176 16.275,5.518 16.275,5.518 C16.088,5.336 15.877,5.160 15.647,4.995 ZM17.019,6.600 C17.019,6.600 15.489,8.091 15.489,8.091 C15.612,8.095 15.722,8.098 15.812,8.098 C16.246,8.096 16.622,8.080 16.839,7.918 C17.023,7.780 17.133,7.475 17.126,7.121 C17.123,6.946 17.081,6.772 17.019,6.600 Z" id="path-1" class="cls-2" fill-rule="evenodd"/>
</svg>
