<svg xmlns="http://www.w3.org/2000/svg" xmlns:xlink="http://www.w3.org/1999/xlink" preserveAspectRatio="xMidYMid" width="30" height="30" viewBox="0 0 30 30">
  <defs>
    <style>

      .cls-2 {
        fill: #ffffff;
      }
    </style>
  </defs>
  <path d="M28.235,30.000 C28.235,30.000 22.941,30.000 22.941,30.000 C21.968,30.000 21.176,29.208 21.176,28.235 C21.176,28.235 21.176,22.941 21.176,22.941 C21.176,21.968 21.968,21.176 22.941,21.176 C22.941,21.176 28.235,21.176 28.235,21.176 C29.209,21.176 30.000,21.968 30.000,22.941 C30.000,22.941 30.000,28.235 30.000,28.235 C30.000,29.208 29.209,30.000 28.235,30.000 ZM28.235,22.941 C28.235,22.941 22.941,22.941 22.941,22.941 C22.941,22.941 22.941,28.235 22.941,28.235 C22.941,28.235 28.237,28.235 28.237,28.235 C28.237,28.235 28.235,22.941 28.235,22.941 ZM28.235,19.412 C28.235,19.412 22.941,19.412 22.941,19.412 C21.968,19.412 21.176,18.620 21.176,17.647 C21.176,17.647 21.176,12.353 21.176,12.353 C21.176,11.380 21.968,10.588 22.941,10.588 C22.941,10.588 28.235,10.588 28.235,10.588 C29.209,10.588 30.000,11.380 30.000,12.353 C30.000,12.353 30.000,17.647 30.000,17.647 C30.000,18.620 29.209,19.412 28.235,19.412 ZM28.235,12.353 C28.235,12.353 22.941,12.353 22.941,12.353 C22.941,12.353 22.941,17.647 22.941,17.647 C22.941,17.647 28.237,17.647 28.237,17.647 C28.237,17.647 28.235,12.353 28.235,12.353 ZM28.235,8.823 C28.235,8.823 22.941,8.823 22.941,8.823 C21.968,8.823 21.176,8.032 21.176,7.059 C21.176,7.059 21.176,1.765 21.176,1.765 C21.176,0.791 21.968,-0.000 22.941,-0.000 C22.941,-0.000 28.235,-0.000 28.235,-0.000 C29.209,-0.000 30.000,0.791 30.000,1.765 C30.000,1.765 30.000,7.059 30.000,7.059 C30.000,8.032 29.209,8.823 28.235,8.823 ZM28.235,1.765 C28.235,1.765 22.941,1.765 22.941,1.765 C22.941,1.765 22.941,7.059 22.941,7.059 C22.941,7.059 28.237,7.059 28.237,7.059 C28.237,7.059 28.235,1.765 28.235,1.765 ZM17.647,30.000 C17.647,30.000 12.353,30.000 12.353,30.000 C11.380,30.000 10.588,29.208 10.588,28.235 C10.588,28.235 10.588,22.941 10.588,22.941 C10.588,21.968 11.380,21.176 12.353,21.176 C12.353,21.176 17.647,21.176 17.647,21.176 C18.620,21.176 19.412,21.968 19.412,22.941 C19.412,22.941 19.412,28.235 19.412,28.235 C19.412,29.208 18.620,30.000 17.647,30.000 ZM17.647,22.941 C17.647,22.941 12.353,22.941 12.353,22.941 C12.353,22.941 12.353,28.235 12.353,28.235 C12.353,28.235 17.649,28.235 17.649,28.235 C17.649,28.235 17.647,22.941 17.647,22.941 ZM17.647,19.412 C17.647,19.412 12.353,19.412 12.353,19.412 C11.380,19.412 10.588,18.620 10.588,17.647 C10.588,17.647 10.588,12.353 10.588,12.353 C10.588,11.380 11.380,10.588 12.353,10.588 C12.353,10.588 17.647,10.588 17.647,10.588 C18.620,10.588 19.412,11.380 19.412,12.353 C19.412,12.353 19.412,17.647 19.412,17.647 C19.412,18.620 18.620,19.412 17.647,19.412 ZM17.647,12.353 C17.647,12.353 12.353,12.353 12.353,12.353 C12.353,12.353 12.353,17.647 12.353,17.647 C12.353,17.647 17.649,17.647 17.649,17.647 C17.649,17.647 17.647,12.353 17.647,12.353 ZM17.647,8.823 C17.647,8.823 12.353,8.823 12.353,8.823 C11.380,8.823 10.588,8.032 10.588,7.059 C10.588,7.059 10.588,1.765 10.588,1.765 C10.588,0.791 11.380,-0.000 12.353,-0.000 C12.353,-0.000 17.647,-0.000 17.647,-0.000 C18.620,-0.000 19.412,0.791 19.412,1.765 C19.412,1.765 19.412,7.059 19.412,7.059 C19.412,8.032 18.620,8.823 17.647,8.823 ZM17.647,1.765 C17.647,1.765 12.353,1.765 12.353,1.765 C12.353,1.765 12.353,7.059 12.353,7.059 C12.353,7.059 17.649,7.059 17.649,7.059 C17.649,7.059 17.647,1.765 17.647,1.765 ZM7.059,30.000 C7.059,30.000 1.765,30.000 1.765,30.000 C0.791,30.000 -0.000,29.208 -0.000,28.235 C-0.000,28.235 -0.000,22.941 -0.000,22.941 C-0.000,21.968 0.791,21.176 1.765,21.176 C1.765,21.176 7.059,21.176 7.059,21.176 C8.032,21.176 8.823,21.968 8.823,22.941 C8.823,22.941 8.823,28.235 8.823,28.235 C8.823,29.208 8.032,30.000 7.059,30.000 ZM7.059,22.941 C7.059,22.941 1.765,22.941 1.765,22.941 C1.765,22.941 1.765,28.235 1.765,28.235 C1.765,28.235 7.060,28.235 7.060,28.235 C7.060,28.235 7.059,22.941 7.059,22.941 ZM7.059,19.412 C7.059,19.412 1.765,19.412 1.765,19.412 C0.791,19.412 -0.000,18.620 -0.000,17.647 C-0.000,17.647 -0.000,12.353 -0.000,12.353 C-0.000,11.380 0.791,10.588 1.765,10.588 C1.765,10.588 7.059,10.588 7.059,10.588 C8.032,10.588 8.823,11.380 8.823,12.353 C8.823,12.353 8.823,17.647 8.823,17.647 C8.823,18.620 8.032,19.412 7.059,19.412 ZM7.059,12.353 C7.059,12.353 1.765,12.353 1.765,12.353 C1.765,12.353 1.765,17.647 1.765,17.647 C1.765,17.647 7.060,17.647 7.060,17.647 C7.060,17.647 7.059,12.353 7.059,12.353 ZM7.059,8.823 C7.059,8.823 1.765,8.823 1.765,8.823 C0.791,8.823 -0.000,8.032 -0.000,7.059 C-0.000,7.059 -0.000,1.765 -0.000,1.765 C-0.000,0.791 0.791,-0.000 1.765,-0.000 C1.765,-0.000 7.059,-0.000 7.059,-0.000 C8.032,-0.000 8.823,0.791 8.823,1.765 C8.823,1.765 8.823,7.059 8.823,7.059 C8.823,8.032 8.032,8.823 7.059,8.823 ZM7.059,1.765 C7.059,1.765 1.765,1.765 1.765,1.765 C1.765,1.765 1.765,7.059 1.765,7.059 C1.765,7.059 7.060,7.059 7.060,7.059 C7.060,7.059 7.059,1.765 7.059,1.765 Z" id="path-1" class="cls-2" fill-rule="evenodd"/>
</svg>
