<svg xmlns="http://www.w3.org/2000/svg" xmlns:xlink="http://www.w3.org/1999/xlink" preserveAspectRatio="xMidYMid" width="19" height="24" viewBox="0 0 19 24">
  <defs>
    <style>

      .cls-2 {
        fill: #8c8c8c;
      }
    </style>
  </defs>
  <path d="M9.495,11.602 C12.318,11.602 14.615,8.841 14.615,5.448 C14.615,2.240 12.510,-0.000 9.495,-0.000 C6.482,-0.000 4.377,2.240 4.377,5.448 C4.377,8.842 6.673,11.602 9.495,11.602 ZM9.495,0.992 C11.961,0.992 13.618,2.783 13.618,5.448 C13.618,8.294 11.769,10.610 9.495,10.610 C7.223,10.610 5.374,8.294 5.374,5.448 C5.374,2.783 7.030,0.992 9.495,0.992 ZM18.990,20.220 C18.977,19.435 18.971,19.141 18.962,19.049 C18.537,15.174 15.221,13.040 9.626,13.040 C9.626,13.040 9.506,13.043 9.506,13.043 C9.506,13.043 9.464,13.042 9.464,13.042 C9.431,13.041 9.398,13.040 9.364,13.040 C3.769,13.040 0.453,15.174 0.029,19.049 C0.019,19.135 0.014,19.391 0.003,20.116 C0.003,20.116 -0.005,20.583 -0.005,20.583 C-0.005,20.594 -0.003,20.605 -0.003,20.615 C-0.002,20.634 -0.001,20.653 0.002,20.671 C0.004,20.686 0.009,20.701 0.013,20.716 C0.017,20.732 0.021,20.748 0.027,20.764 C0.032,20.779 0.039,20.793 0.046,20.807 C0.053,20.822 0.060,20.836 0.069,20.851 C0.077,20.864 0.087,20.877 0.097,20.891 C0.106,20.903 0.115,20.915 0.126,20.927 C0.139,20.941 0.153,20.953 0.168,20.965 C0.175,20.972 0.182,20.980 0.190,20.987 C0.195,20.991 0.200,20.994 0.205,20.997 C0.206,20.998 0.207,20.999 0.208,21.000 C2.819,22.988 5.942,23.996 9.494,23.996 C9.494,23.996 9.495,23.996 9.495,23.996 C12.960,23.996 16.170,22.960 18.782,21.001 C18.783,20.999 18.785,20.998 18.786,20.997 C18.790,20.994 18.794,20.992 18.798,20.989 C18.807,20.983 18.813,20.975 18.821,20.968 C18.836,20.955 18.851,20.943 18.864,20.928 C18.874,20.917 18.884,20.905 18.893,20.892 C18.903,20.879 18.913,20.866 18.922,20.852 C18.930,20.838 18.937,20.824 18.944,20.810 C18.951,20.795 18.958,20.781 18.964,20.766 C18.970,20.750 18.973,20.735 18.978,20.718 C18.982,20.703 18.986,20.688 18.989,20.672 C18.992,20.655 18.992,20.637 18.994,20.619 C18.994,20.607 18.997,20.596 18.996,20.584 C18.996,20.584 18.990,20.220 18.990,20.220 ZM9.495,23.003 C9.495,23.003 9.494,23.003 9.494,23.003 C6.249,23.003 3.392,22.108 0.996,20.345 C0.996,20.345 1.000,20.132 1.000,20.132 C1.005,19.775 1.014,19.236 1.020,19.157 C1.484,14.921 5.813,14.032 9.364,14.032 C9.364,14.032 9.506,14.035 9.506,14.035 C9.506,14.035 9.626,14.032 9.626,14.032 C13.176,14.032 17.506,14.921 17.970,19.150 C17.977,19.241 17.988,19.864 17.993,20.237 C17.993,20.237 17.995,20.342 17.995,20.342 C15.592,22.083 12.659,23.003 9.495,23.003 Z" id="path-1" class="cls-2" fill-rule="evenodd"/>
</svg>
